<svg xmlns="http://www.w3.org/2000/svg" viewBox="0 0 36 24" role="img" aria-label="Korea">
  <rect width="36" height="24" rx="3" fill="#fff"/>
  <path fill="#d22f27" d="M18 6a6 6 0 0 1 0 12 3 3 0 0 1 0-6 3 3 0 0 0 0-6Z"/>
  <path fill="#164a9f" d="M18 18a6 6 0 0 1 0-12 3 3 0 0 1 0 6 3 3 0 0 0 0 6Z"/>
  <g stroke="#111" stroke-width="1.2" stroke-linecap="round">
    <path d="M6 5.2 10.2 3M7.1 7.1 11.3 4.9M8.2 9 12.4 6.8"/>
    <path d="M25.8 17.2 30 15M24.7 19.1 28.9 16.9M23.6 21 27.8 18.8"/>
    <path d="M25 5.1 29.2 7.3M26.1 3.2 30.3 5.4M23.9 7 28.1 9.2"/>
    <path d="M6.8 15 11 17.2M5.7 16.9 9.9 19.1M7.9 13.1 12.1 15.3"/>
  </g>
</svg>
